<?xml version="1.0" encoding="UTF-8"?>
<svg id="Layer_2" data-name="Layer 2" xmlns="http://www.w3.org/2000/svg" viewBox="0 0 594.52 403.61">
  <defs>
    <style>
      .cls-1 {
        fill: none;
      }

      .cls-2 {
        fill: #231f20;
      }
    </style>
  </defs>
  <g id="Layer_1-2" data-name="Layer 1">
    <g>
      <path class="cls-1" d="M594.52,0v400.12H0V0h594.52ZM388.38,176.5c7.89,2.98,16.88,2.66,23.88-2.29l171.16-133.18c13.35-11.86.44-31.8-15.96-25.4-65.59,36.84-131.26,73.56-196.34,111.3-12.36,9.85-6.62,19.42-7.32,31.82-.09,1.68-3.08,12.72-3.85,14.11-1.15,2.09-9.81,9.65-12.2,11.87-10.59,9.82-22.15,18.79-32.57,28.77-.63.61-2.55,2.31-2.74,2.94-.75,2.5,2.09,4.55,4.14,2.7l30.49-27.56,5.36,6.29-37.57,29.69c-1.96,2.45.72,5.64,3.33,4.05,12.42-9.72,24.56-19.89,37.15-29.38,8.88-6.68,20.99-13.64,28.96-20.59,1.62-1.41,3.32-3.09,4.08-5.14ZM227.9,197.69l5.83-6.09c10.76,9.35,20.81,19.69,31.78,28.67,6.23-1.5,1.05-5.51-1.51-7.96-13.74-13.15-28.5-25.26-41.7-38.98-.88-1.5-3.66-14.22-3.62-15.98.03-1.26,1.31-4.37,1.59-6.2,1.98-12.89.98-20.73-10.34-28.2-7.43-4.9-15.97-9.46-23.71-14.04C134.47,78.24,82.09,48.62,30.21,18.16,14.97,8.62-2.84,28.27,11.1,41.51l164.74,130.63c5.23,3.75,11.32,4.42,17.6,3.6,1.68,1.34,2.4,3.69,3.84,5.16,5.79,5.91,18.67,13.42,25.85,18.97,13.45,10.39,26.17,21.76,39.67,32.09,2.51.63,4.41-2.23,2.87-4.33l-37.78-29.94ZM311.73,175.21c-1.19-1.18-3.62-1.87-5.27-2.04-7.67-.78-25.87-.83-33.5,0-8.21.88-8.18,11.9-.21,13.01l.03,156.56c4.14,19.51,30.92,19.59,34.81,0l.02-156.56c5.59,0,7.68-7.43,4.11-10.96ZM121.73,318.73v44.35c0,1.12,5.18,1.6,6.37,1.64,1.51.05,4.19.34,5.16-.96l6.65-33.46,17.84-10.78,7.15,4.6c-3.87,15.34,14.15,25.57,26.34,16.14l8.82,5.43c-.07,2.23.32,5.41-1.16,7.27l-31.17,23.56-.99,2.36c1.57,2.29,10.46,14.45,12.32,14.64l35.11-17.26c1.42-1,1.45-2.81,1.77-4.37,1.94-9.59,4.31-25.59,4.85-35.25.15-2.6-.47-2.69-.84-4.38-.53-2.44,4.91-11.48,5.47-14.59l17.78-14.78,1.62-18.64,20.56-16.27c2.4-1.98.46-5.71-2.57-4.46l-21.56,17.13-18.09-8.65,41.3-25.7c1.88-1.86-.2-4.97-2.62-4.06l-43.76,27.07c-3.66-.06-7.19-3.22-10.99-2.06l-22.97,13.85c-3.38.55-11.97-3.06-14.63-1.92-4.87,5.07-12.14,9.18-14.42,16.04l-33.36,23.49ZM458.63,363.08v-44.35l-33.23-23.86c-2.16-4.68-8.19-10.72-12.29-14.13-.55-.46-1.58-1.44-2.17-1.64-2.39-.82-10.87,2.36-13.87,2.59-6.85-3.72-13.35-8.76-20.23-12.34-2.15-1.12-4.13-2.52-6.64-2.25-2.58.28-5.9,2.88-8.32,2.12l-43.27-27.09c-2.35-.48-3.96,2.62-2.48,4.41l41.04,25.48-18.17,8.56-21.59-16.93c-2.61-1.51-4.95,2.44-2.73,4.15l20.26,16.07c1.07,6.11.49,12.65,1.99,18.77,4.67,3.97,9.2,8.11,13.88,12.07.82.7,3.8,2.36,4.03,2.69.41.58,5.11,12.46,5.15,13.17.09,1.31-1.41,2.64-.95,4.18,2.79,12.89,2.93,27.3,5.79,40.04.11.51.22,1,.7,1.3l35.05,17.72c.54.3.77.04,1.19-.25,1.35-.91,9.38-10.83,10.53-12.62.68-1.06,1.37-1.68.94-3.12-.35-1.17-11.27-9.41-13.18-10.91-6.39-5.03-12.92-10.01-19.67-14.53l-.49-6.68,9.21-5.91c11.83,10.63,29.76-.28,26.78-15.62l6.72-4.65,17.55,11.07c3.23,9.89,3.34,21.63,6.33,31.42.39,1.27.45,2.42,2,2.72,1.43.28,9.75-.43,10.13-1.64Z"/>
      <path d="M388.38,176.5c-.76,2.05-2.46,3.73-4.08,5.14-7.96,6.95-20.08,13.9-28.96,20.59-12.6,9.49-24.73,19.67-37.15,29.38-2.61,1.59-5.29-1.6-3.33-4.05l37.57-29.69-5.36-6.29-30.49,27.56c-2.05,1.85-4.89-.2-4.14-2.7.19-.63,2.11-2.33,2.74-2.94,10.42-9.97,21.98-18.94,32.57-28.77,2.39-2.22,11.05-9.78,12.2-11.87.76-1.39,3.75-12.43,3.85-14.11.69-12.4-5.04-21.97,7.32-31.82,65.08-37.73,130.75-74.46,196.34-111.3,16.4-6.4,29.31,13.53,15.96,25.4l-171.16,133.18c-7,4.95-15.99,5.26-23.88,2.29ZM572.23,19.46c-1.05.13-2.25.59-3.22,1.04l-194.34,109.99c-7.57,5.68-7.37,14.78-5.92,23.32,2.24,2.16,4.68,4.15,7.08,6.13,2.94,2.42,13.62,11.5,16.26,12.53,4.77,1.86,12.8.56,17.06-2.31l171.22-133.11c7.42-6.54,1.74-18.79-8.13-17.58Z"/>
      <path d="M227.9,197.69l37.78,29.94c1.54,2.11-.37,4.96-2.87,4.33-13.5-10.33-26.22-21.7-39.67-32.09-7.18-5.55-20.06-13.06-25.85-18.97-1.44-1.47-2.16-3.82-3.84-5.16-6.28.82-12.36.15-17.6-3.6L11.1,41.51C-2.84,28.27,14.97,8.62,30.21,18.16c51.88,30.46,104.26,60.08,156.01,90.76,7.73,4.58,16.28,9.14,23.71,14.04,11.32,7.47,12.32,15.31,10.34,28.2-.28,1.83-1.57,4.94-1.59,6.2-.04,1.76,2.75,14.48,3.62,15.98,13.2,13.72,27.96,25.83,41.7,38.98,2.55,2.44,7.74,6.46,1.51,7.96-10.98-8.99-21.02-19.33-31.78-28.67l-5.83,6.09ZM19.69,20.88c-7.94,1.26-11.36,11.28-5.32,16.89,55.96,43.5,110.81,88.5,166.97,131.71,3.23,1.54,6.72,1.66,10.24,1.11l22.83-16.8c2.32-7.94,3.22-17.33-3.25-23.57C149.35,92.77,86.63,56.43,23.72,20.87c-1.34-.21-2.69-.21-4.02,0Z"/>
      <path d="M458.63,363.08c-.39,1.21-8.71,1.92-10.13,1.64-1.55-.3-1.61-1.45-2-2.72-2.98-9.79-3.1-21.53-6.33-31.42l-17.55-11.07-6.72,4.65c2.98,15.34-14.95,26.25-26.78,15.62l-9.21,5.91.49,6.68c6.75,4.52,13.28,9.5,19.67,14.53,1.91,1.5,12.83,9.74,13.18,10.91.43,1.44-.26,2.06-.94,3.12-1.15,1.8-9.17,11.72-10.53,12.62-.42.28-.64.54-1.19.25l-35.05-17.72c-.48-.3-.58-.79-.7-1.3-2.86-12.74-3.01-27.15-5.79-40.04-.45-1.55,1.04-2.87.95-4.18-.05-.71-4.74-12.59-5.15-13.17-.23-.33-3.21-2-4.03-2.69-4.68-3.96-9.21-8.1-13.88-12.07-1.5-6.12-.92-12.66-1.99-18.77l-20.26-16.07c-2.23-1.71.12-5.66,2.73-4.15l21.59,16.93,18.17-8.56-41.04-25.48c-1.48-1.79.13-4.89,2.48-4.41l43.27,27.09c2.42.76,5.74-1.84,8.32-2.12,2.51-.27,4.49,1.13,6.64,2.25,6.88,3.58,13.38,8.63,20.23,12.34,3-.22,11.48-3.41,13.87-2.59.58.2,1.62,1.18,2.17,1.64,4.1,3.41,10.14,9.45,12.29,14.13l33.23,23.86v44.35ZM410.98,297.73l7.06-4.95c-2.28-1.5-6.48-7.56-8.5-8.49-1.78-.82-9.56,2.18-12.15,2.48-.78.09-1.28.22-2.11,0-.95-.24-7.68-5.2-9.36-6.23-4.72-2.87-9.46-5.78-14.39-8.29-1.96-.26-7.34,2.31-9.48,3.21-6.17,2.59-13.21,5.69-19.19,8.64-.69.34-2.42.98-2.61,1.65l1.47,13.98,9.1,8.36c.21-1.44-.96-2.57-1.14-4.05-.82-6.76,7.59-10.88,12.66-6.05,1.78,1.7,6.67,10.12,2.53,10.95s-3.69-6.14-6.26-7.69c-1.5-.91-3.97-.04-3.8,1.87l10.2,26.19,42.2-28.78-4.1-1.31c-7.38-4.66.83-14.88,6.96-9.32,2.47,2.25,2.36,5.02.93,7.81ZM421.32,297.29l-45.03,30.64,2.07.54,1.48,11.26,14.3-8.11,27.24-17.12,1.98-.16,19.86,11.79,1.67,1.63,6.21,31.77c1.84.1,2.6.36,2.84-1.61.96-7.91.44-23.79,0-32.13-.09-1.8-.61-3.52-.57-5.33l-30.57-20.62-1.48-2.54ZM376.17,362.73l-2.48-32.92-9.35,5.94,5.38,36.5,30.61,15.63,6.82-8.76-26.14-20.52-.69,4.02c-1.27.9-2.83.94-4.15.11Z"/>
      <path d="M121.73,318.73l33.36-23.49c2.28-6.85,9.55-10.96,14.42-16.04,2.66-1.14,11.25,2.47,14.63,1.92l22.97-13.85c3.8-1.16,7.33,2,10.99,2.06l43.76-27.07c2.42-.91,4.5,2.2,2.62,4.06l-41.3,25.7,18.09,8.65,21.56-17.13c3.03-1.25,4.97,2.48,2.57,4.46l-20.56,16.27-1.62,18.64-17.78,14.78c-.56,3.11-6,12.14-5.47,14.59.37,1.69.98,1.78.84,4.38-.54,9.66-2.91,25.66-4.85,35.25-.32,1.56-.35,3.37-1.77,4.37l-35.11,17.26c-1.86-.19-10.75-12.35-12.32-14.64l.99-2.36,31.17-23.56c1.48-1.86,1.09-5.04,1.16-7.27l-8.82-5.43c-12.19,9.43-30.22-.8-26.34-16.14l-7.15-4.6-17.84,10.78-6.65,33.46c-.98,1.31-3.66,1.01-5.16.96-1.19-.04-6.37-.52-6.37-1.64v-44.35ZM229.79,307.16l8.72-7.08c.18-2.48,1.98-13.14.97-14.64-6.81-2.99-13.42-6.53-20.23-9.5-2.68-1.17-8.58-4.28-11.15-3.43l-23.96,14.28-13-2.66-8.83,8.64,7.07,4.48c-1.3-2.66-1.36-5.54,1.17-7.56,6.04-4.82,13.14,4.18,7.49,8.91l-4.41,1.95,41.76,28.79,10.18-25.72c.14-2.38-1.54-3.17-3.69-2.23-3.1,1.35-2.53,8.45-6.87,7.1-3.7-1.15.81-8.45,2.49-10.07,6.55-6.33,16.3.42,12.29,8.74ZM204.31,328.4l-44.52-31.09c-9.95,9-22.02,15.34-32.63,23.54-1.45,12.8-.37,25.81-.71,38.7l2.81-.03,6.29-32.4,20.98-12.77,2.82.26,40.95,25.58c1.74-3.57-1.3-11.54,4.01-11.8ZM215.55,335.08l-9.35-5.74-2.33,33.18c-2.57,2.11-4.84-.94-4.99-3.46l-25.6,20.04,6.1,8.18,2.14-.28,29.14-14.74,4.88-37.19Z"/>
      <path d="M322.52,130.33c5.35,5.3,2.21,16.45-6.17,16.45l-.04,234.84c-5.84,29.38-46,29.26-52.22,0l-.04-234.85c-11.96-1.67-12-18.2.31-19.52,11.44-1.23,38.74-1.17,50.24.01,2.48.25,6.13,1.3,7.91,3.06ZM308.61,251.82v-110.06c0-2.67,15.24-.75,6.7-6.7l-49.56-.05-2.82,1.44v2.16c1.5,2.42,8.87.06,8.87,3.87v109.35h36.8ZM308.61,259.61l-36.8-.71v122.09c0,9,12.94,16.37,21.42,15.04,5.59-.87,15.38-8.48,15.38-14.34v-122.09Z"/>
      <path class="cls-2" d="M573.39,19.46c9.93-1.21,15.64,11.04,8.18,17.58l-172.19,133.11c-4.28,2.87-12.36,4.17-17.15,2.31-2.65-1.03-13.39-10.1-16.35-12.53-2.41-1.98-4.87-3.96-7.12-6.13-1.46-8.54-1.66-17.64,5.96-23.32l195.44-109.99c.98-.44,2.18-.91,3.24-1.04ZM400.18,127.51c-9.38,1.47-14.32,11.97-9.56,20.14,3.84,6.59,13.27,8.9,19.62,4.49,11.71-8.14,4.56-26.92-10.06-24.63Z"/>
      <path class="cls-2" d="M19.69,20.88c1.34-.21,2.69-.21,4.02,0,62.91,35.55,125.63,71.9,187.44,109.34,6.47,6.24,5.57,15.63,3.25,23.57l-22.83,16.8c-3.52.55-7.01.43-10.24-1.11C125.18,126.27,70.33,81.27,14.37,37.77c-6.04-5.61-2.62-15.63,5.32-16.89ZM178.7,126.09c-4.69.8-9.92,6.4-10.61,11.1-2.12,14.42,16.49,21.56,24.62,9.99,7.25-10.32-2.04-23.13-14.01-21.09Z"/>
      <path class="cls-2" d="M410.98,297.73c1.43-2.78,1.55-5.56-.93-7.81-6.13-5.57-14.34,4.66-6.96,9.32l4.1,1.31-42.2,28.78-10.2-26.19c-.17-1.9,2.3-2.77,3.8-1.87,2.57,1.55,2.1,8.53,6.26,7.69s-.75-9.26-2.53-10.95c-5.07-4.84-13.48-.72-12.66,6.05.18,1.48,1.35,2.61,1.14,4.05l-9.1-8.36-1.47-13.98c.19-.68,1.92-1.31,2.61-1.65,5.99-2.96,13.02-6.05,19.19-8.64,2.14-.9,7.52-3.47,9.48-3.21,4.93,2.51,9.67,5.42,14.39,8.29,1.69,1.03,8.42,5.98,9.36,6.23.83.21,1.33.08,2.11,0,2.58-.3,10.37-3.3,12.15-2.48,2.01.93,6.22,6.99,8.5,8.49l-7.06,4.95ZM363.48,313.46c-5.31,5.31,3.19,13.14,8.12,7.88,4.9-5.22-2.91-13.09-8.12-7.88Z"/>
      <path class="cls-2" d="M421.32,297.29l1.48,2.54,30.57,20.62c-.04,1.82.47,3.54.57,5.33.44,8.34.96,24.22,0,32.13-.24,1.97-.99,1.71-2.84,1.61l-6.21-31.77-1.67-1.63-19.86-11.79-1.98.16-27.24,17.12-14.3,8.11-1.48-11.26-2.07-.54,45.03-30.64Z"/>
      <path class="cls-2" d="M376.17,362.73c1.31.83,2.88.79,4.15-.11l.69-4.02,26.14,20.52-6.82,8.76-30.61-15.63-5.38-36.5,9.35-5.94,2.48,32.92Z"/>
      <path class="cls-2" d="M229.79,307.16c4.01-8.32-5.74-15.08-12.29-8.74-1.67,1.62-6.19,8.93-2.49,10.07,4.34,1.34,3.77-5.75,6.87-7.1,2.15-.94,3.83-.16,3.69,2.23l-10.18,25.72-41.76-28.79,4.41-1.95c5.65-4.73-1.46-13.73-7.49-8.91-2.53,2.02-2.47,4.9-1.17,7.56l-7.07-4.48,8.83-8.64,13,2.66,23.96-14.28c2.57-.85,8.47,2.26,11.15,3.43,6.81,2.97,13.42,6.51,20.23,9.5,1.02,1.5-.79,12.17-.97,14.64l-8.72,7.08ZM211.73,311.52c-6.19,1.27-5.32,11.5,2.2,10.71,7.35-.77,5.53-12.3-2.2-10.71Z"/>
      <path class="cls-2" d="M204.31,328.4c-5.31.26-2.27,8.23-4.01,11.8l-40.95-25.58-2.82-.26-20.98,12.77-6.29,32.4-2.81.03c.33-12.88-.74-25.89.71-38.7,10.61-8.2,22.67-14.54,32.63-23.54l44.52,31.09Z"/>
      <path class="cls-2" d="M215.55,335.08l-4.88,37.19-29.14,14.74-2.14.28-6.1-8.18,25.6-20.04c.14,2.51,2.42,5.56,4.99,3.46l2.33-33.18,9.35,5.74Z"/>
      <path class="cls-2" d="M313.81,256.93v124.48c0,5.97-12.06,13.73-18.95,14.62-10.45,1.35-26.39-6.16-26.39-15.34v-124.48l45.34.72Z"/>
      <path class="cls-1" d="M302.45,256.21h-24.54v-72.9c0-2.54-4.92-.97-5.92-2.58v-1.44s1.89-.96,1.89-.96l33.04.04c5.69,3.97-4.47,2.69-4.47,4.47v73.37Z"/>
      <path class="cls-1" d="M400,127.51c14.53-2.3,21.65,16.49,10,24.63-6.31,4.41-15.69,2.1-19.51-4.49-4.73-8.17.18-18.66,9.51-20.14Z"/>
      <path class="cls-1" d="M178.7,126.09c11.97-2.04,21.26,10.77,14.01,21.09-8.13,11.57-26.73,4.43-24.62-9.99.69-4.7,5.92-10.3,10.61-11.1Z"/>
      <path d="M363.48,313.46c5.21-5.21,13.02,2.66,8.12,7.88-4.93,5.26-13.43-2.57-8.12-7.88Z"/>
      <path d="M211.73,311.52c7.73-1.58,9.55,9.94,2.2,10.71-7.52.79-8.39-9.45-2.2-10.71Z"/>
    </g>
  </g>
</svg>